<svg xmlns="http://www.w3.org/2000/svg" viewBox="0 0 500 150"><defs><linearGradient id="heroBg" x1="0%" y1="0%" x2="100%" y2="100%"><stop offset="0%" stop-color="rgba(0,85,164,0.04)"/><stop offset="100%" stop-color="rgba(198,164,63,0.02)"/></linearGradient><linearGradient id="heroGold" x1="0%" y1="0%" x2="100%" y2="100%"><stop offset="0%" stop-color="#C6A43F"/><stop offset="100%" stop-color="#E8D5A3"/></linearGradient><linearGradient id="heroBlue" x1="0%" y1="0%" x2="100%" y2="100%"><stop offset="0%" stop-color="#0055A4"/><stop offset="100%" stop-color="#1A6BB5"/></linearGradient></defs><rect width="500" height="150" fill="url(#heroBg)" rx="18"/><g stroke="url(#heroBlue)" stroke-width="1.2" stroke-linecap="round" fill="none"><line x1="60" y1="35" x2="250" y2="35" opacity="0.8"/><line x1="60" y1="48" x2="220" y2="48" opacity="0.5"/><line x1="60" y1="61" x2="235" y2="61" opacity="0.3"/><line x1="60" y1="74" x2="200" y2="74" opacity="0.15"/></g><g transform="translate(380, 55)"><polygon points="0,-18 6,-6 19,-6 9,3 13,17 0,9 -13,17 -9,3 -19,-6 -6,-6" fill="url(#heroGold)" opacity="0.8"/><circle cx="0" cy="0" r="14" stroke="url(#heroGold)" stroke-width="1" stroke-dasharray="4 6" fill="none" opacity="0.4"/></g><g stroke="url(#heroBlue)" stroke-width="1.2" stroke-linecap="round" fill="none"><line x1="280" y1="35" x2="440" y2="35" opacity="0.15"/><line x1="295" y1="48" x2="440" y2="48" opacity="0.3"/><line x1="310" y1="61" x2="440" y2="61" opacity="0.5"/><line x1="325" y1="74" x2="440" y2="74" opacity="0.8"/></g><text x="250" y="120" text-anchor="middle" font-family="Cormorant Garamond, serif" font-size="11" fill="url(#heroGold)" opacity="0.5" letter-spacing="8" font-style="italic">ALMA · LIMPA · PROFISSIONAL · FORTE</text><circle cx="60" cy="100" r="2.5" fill="url(#heroGold)" opacity="0.5"/><circle cx="440" cy="100" r="2.5" fill="url(#heroGold)" opacity="0.5"/><line x1="100" y1="108" x2="400" y2="108" stroke="url(#heroBlue)" stroke-width="0.5" opacity="0.1"/></svg>
