<svg xmlns="http://www.w3.org/2000/svg" viewBox="0 0 48 48"><defs><linearGradient id="g1" x1="35" y1="5" x2="-17" y2="38"><stop stop-color="#FFC470"/><stop offset="0.22" stop-color="#FF835C"/><stop offset="0.49" stop-color="#F24A9D"/><stop offset="0.77" stop-color="#B339F0"/></linearGradient><linearGradient id="g2" x1="9" y1="35" x2="48" y2="-8"><stop offset="0.21" stop-color="#4E46E2" stop-opacity="0.8"/><stop offset="0.36" stop-color="#625DF6"/><stop offset="0.64" stop-color="#E37DFF"/></linearGradient></defs><path d="M32.2061 6.02637C34.9032 3.3289 39.2762 3.3283 41.9736 6.02539C44.6707 8.72249 44.6714 13.0956 41.9746 15.793L39.7686 17.999L38.001 19.7676L17.8057 39.9639C17.0434 40.7262 16.0904 41.2701 15.0459 41.5371L5.55957 43.9619C5.13184 44.0712 4.67834 43.946 4.36621 43.6338C4.05409 43.3216 3.92963 42.8681 4.03906 42.4404L6.46582 32.9551C6.73289 31.9116 7.27554 30.959 8.03711 30.1973L28.2334 9.99902L32.2061 6.02637Z" fill="url(#g1)"/><path d="M5.37305 5.375C6.76444 3.98394 8.68063 3.78932 10.5898 4.16992C12.4956 4.54995 14.6257 5.53748 16.7988 6.85254C21.1619 9.49294 26.0275 13.6564 30.1846 17.8135C34.3417 21.9706 38.5055 26.8346 41.1455 31.1973C42.4604 33.3701 43.4479 35.5004 43.8281 37.4062C44.2089 39.3157 44.0129 41.2326 42.623 42.625C41.2325 44.0178 39.3165 44.2135 37.4072 43.833C35.5014 43.4531 33.3707 42.4658 31.1973 41.1504C29.3426 40.0279 27.3971 38.63 25.4538 37.0744C24.8781 36.6136 24.8389 35.7558 25.3604 35.2343C25.8167 34.778 26.5443 34.7442 27.0483 35.1472C28.9063 36.6333 30.7504 37.9581 32.4912 39.0117C34.5605 40.2641 36.4027 41.0833 37.8955 41.3809C39.3846 41.6776 40.2936 41.4204 40.8545 40.8584C41.416 40.2957 41.673 39.3849 41.376 37.8955C41.0781 36.4021 40.2578 34.56 39.0059 32.4912C36.512 28.3702 32.5035 23.6676 28.417 19.5811C24.3305 15.4946 19.6273 11.4855 15.5059 8.99121C13.4369 7.73911 11.5946 6.91886 10.1016 6.62109C8.61225 6.32415 7.70235 6.58183 7.14062 7.14355C6.57896 7.70528 6.32124 8.61525 6.61816 10.1045C6.91593 11.5975 7.73633 13.439 8.98828 15.5078C10.0417 17.2485 11.3661 19.0928 12.8518 20.9507C13.2549 21.4547 13.221 22.1823 12.7648 22.6386C12.2433 23.16 11.3855 23.1209 10.9247 22.5451C9.36944 20.6018 7.97196 18.6564 6.84961 16.8018C5.53455 14.6286 4.54702 12.4985 4.16699 10.5928C3.78632 8.68333 3.98159 6.76646 5.37305 5.375Z" fill="url(#g2)"/></svg>
